<svg width="200" height="80" xmlns="http://www.w3.org/2000/svg"><g fill="none" fill-rule="evenodd"><path fill="#E31C79" d="M0 .104v4.192h4.146v19.152h4.567V4.296h4.174V.104zM24.276.104V9.46h-4.77V.104h-4.564v23.344h4.565V13.68h4.769v9.77h4.566V.103zM31.828.104v23.344h10.59v-3.95h-6.032v-6.305h5.331V9.426h-5.33V4.051h5.647V.104zM54.955 19.84c.241.077.55.077.802.077 2.19 0 4.108-2.151 4.108-8.593 0-4.779-1.258-7.683-4.006-7.683-.312 0-.63 0-.904.1V19.84zM50.39.45C51.537.173 53.212 0 55.024 0c2.957 0 5.013.692 6.506 2.074 2.025 1.805 3.07 4.89 3.07 9.428 0 4.706-1.22 8.064-3.273 9.868-1.599 1.486-3.903 2.248-7.142 2.248-1.465 0-2.889-.136-3.796-.273V.45zM77.034 13.193h-5.333v6.305h6.032v3.95H67.141V.103h10.206v3.948h-5.646v5.375h5.333zM88.502 14.578L87.74 9.7c-.241-1.42-.554-3.778-.764-5.3h-.102c-.251 1.559-.596 3.948-.84 5.3l-.873 4.88h3.342zm-3.789 3.536l-1.049 5.335H79.24L84.325.104h5.47l4.56 23.345h-4.422l-1.011-5.335h-4.209zM96.59.104h10.205V4.05h-5.646v5.991h5.296v3.776h-5.296v9.632h-4.56zM119.642.104v9.355h4.776V.104h4.557v23.345h-4.557v-9.77h-4.776v9.77h-4.563V.104zM141.855 13.193h-5.33v6.305h6.025v3.95h-10.583V.103h10.205v3.948h-5.646v5.375h5.33zM153.334 14.578L152.57 9.7c-.248-1.42-.56-3.778-.77-5.3h-.103c-.248 1.559-.592 3.948-.84 5.3l-.866 4.88h3.343zm-3.796 3.536l-1.047 5.335h-4.42L149.15.104h5.473l4.562 23.345h-4.426l-1.007-5.335h-4.215zM161.414.104h4.56v19.498h5.994v3.847h-10.554zM174.928 4.297h-4.147V.104h12.89v4.193h-4.18v19.152h-4.563zM190.292.104v9.355h4.766V.104h4.566v23.345h-4.566v-9.77h-4.766v9.77h-4.567V.104zM12.853 50.808c-.66.309-1.95.548-3.518.548-6.024 0-8.882-4.882-8.882-11.528C.453 31.026 5.37 27.6 9.93 27.6c1.602 0 2.717.314 3.17.622l-.77 3.814c-.522-.25-1.107-.455-2.125-.455-2.575 0-4.91 2.22-4.91 7.998 0 5.58 2.126 7.76 4.91 7.76.768 0 1.637-.173 2.194-.342l.454 3.81zM19.575 27.806v9.356h4.776v-9.356h4.56V51.15h-4.56v-9.767h-4.776v9.767h-4.563V27.806zM39.88 42.282l-.763-4.882c-.248-1.416-.558-3.776-.766-5.3h-.105c-.246 1.56-.6 3.953-.842 5.3l-.866 4.882h3.342zm-3.795 3.536l-1.047 5.332h-4.421l5.089-23.344h5.464l4.562 23.344h-4.425L40.3 45.818h-4.215zM52.524 38.333h.835c1.988 0 3.102-1.59 3.102-3.634 0-2.005-.8-3.391-2.826-3.459-.412 0-.867.033-1.11.136v6.957zm-4.563-10.18c1.43-.272 3.24-.45 4.983-.45 2.507 0 4.769.384 6.269 1.735 1.427 1.28 1.877 2.837 1.877 4.843 0 2.497-1.252 4.744-3.618 5.821v.069c1.603.655 2.4 2.11 2.855 4.64.45 2.597 1.083 5.478 1.496 6.339h-4.77c-.316-.656-.832-3.015-1.187-5.607-.415-2.878-1.152-3.706-2.643-3.706h-.699v9.313h-4.563V28.154zM63.979 51.15h4.566V27.806H63.98zM74.81 32.001h-4.144v-4.195h12.887V32h-4.177v19.15H74.81zM90.105 51.15v-8.937L84.96 27.806h4.869l1.567 5.579c.454 1.488.909 3.22 1.26 4.949h.067c.28-1.693.66-3.392 1.08-5.053l1.39-5.475h4.741l-5.257 14.236v9.108h-4.573z"/><path d="M1.08 74.214c.939.52 2.578.9 3.868.9 2.121 0 3.204-1.111 3.204-2.632 0-1.693-1.049-2.525-3.032-3.806-3.206-1.938-4.425-4.4-4.425-6.516 0-3.736 2.51-6.855 7.386-6.855 1.567 0 3.032.419 3.693.829l-.733 3.913c-.663-.41-1.667-.796-2.96-.796-1.947 0-2.893 1.178-2.893 2.427 0 1.386.698 2.112 3.208 3.633 3.137 1.872 4.25 4.23 4.25 6.688 0 4.257-3.17 7.06-7.733 7.06-1.88 0-3.696-.478-4.494-.933l.66-3.912zM14.977 78.854h4.564V55.51h-4.564zM35.988 78.231c-1.004.419-3.133.83-4.842.83-2.716 0-4.765-.761-6.299-2.319-2.025-1.94-3.101-5.4-3.032-9.421.102-8.48 4.943-12.016 9.995-12.016 1.778 0 3.07.35 3.799.692l-.769 3.913c-.701-.342-1.569-.521-2.683-.521-3.128 0-5.604 2.111-5.604 8.178 0 5.613 2.19 7.656 4.353 7.656.413 0 .733-.042.904-.11v-5.64h-2.122v-3.71h6.3v12.468zM38.918 78.855V55.51h4.181l3.617 9.143c.737 1.803 1.85 4.82 2.51 6.826h.076c-.144-2.46-.453-6.51-.453-10.803V55.51h4.002v23.345H48.67l-3.588-8.862c-.8-1.975-1.846-4.956-2.395-7.034h-.076c.138 2.351.316 5.958.316 10.667v5.229h-4.01zM60.395 55.51v9.355h4.78V55.51h4.555v23.345h-4.555v-9.77h-4.78v9.77h-4.56V55.51zM82.608 68.6h-5.326v6.305h6.028v3.95H72.72V55.51h10.205v3.947h-5.643v5.375h5.326zM94.09 69.985l-.766-4.88c-.248-1.42-.558-3.778-.77-5.299h-.105c-.24 1.558-.587 3.947-.835 5.3l-.87 4.879h3.346zm-3.8 3.536l-1.042 5.334h-4.426l5.086-23.345h5.472l4.566 23.345h-4.43l-1.004-5.334H90.29zM102.167 55.51h4.566v19.498h5.99v3.847h-10.556zM115.684 59.703h-4.15V55.51h12.894v4.193h-4.18v19.152h-4.564zM131.045 55.51v9.355h4.773V55.51h4.566v23.345h-4.566v-9.77h-4.773v9.77h-4.564V55.51z" fill="#582C83"/></g></svg>